<svg xmlns="http://www.w3.org/2000/svg" viewBox="0 0 35.4 39.5"><defs><style>.cls-1,.cls-2{fill:none;stroke:#000;stroke-miterlimit:10;stroke-width:2px;}.cls-2{stroke-linecap:round;}</style></defs><g id="Camada_10" data-name="Camada 10"><path class="cls-1" d="M262.91,268.75H237.09a3.83,3.83,0,0,1-3.78-4.16l1.42-18.78a3.82,3.82,0,0,1,3.78-3.56h23a3.82,3.82,0,0,1,3.78,3.56l1.42,18.78A3.83,3.83,0,0,1,262.91,268.75Z" transform="translate(-232.3 -230.25)"/><path class="cls-1" d="M259.5,242.25V240c0-4.81-4.25-8.71-9.5-8.71s-9.5,3.9-9.5,8.71v2.29Z" transform="translate(-232.3 -230.25)"/><line class="cls-2" x1="8.2" y1="19.77" x2="8.2" y2="12"/><line class="cls-2" x1="27.16" y1="19.34" x2="27.16" y2="11.57"/></g></svg>