<svg xmlns="http://www.w3.org/2000/svg" viewBox="0 0 143 143"><defs><style>.cls-1,.cls-3{fill:#ff9f7f;}.cls-1,.cls-2,.cls-3{stroke:#000;stroke-miterlimit:10;}.cls-1{stroke-width:2px;}.cls-2{fill:none;}.cls-2,.cls-3{stroke-width:3px;}</style></defs><g id="Camada_14" data-name="Camada 14"><circle class="cls-1" cx="71.5" cy="71.5" r="70.5"/></g><g id="Camada_17" data-name="Camada 17"><circle class="cls-2" cx="64.66" cy="48.84" r="6.84"/><circle class="cls-2" cx="78.34" cy="48.84" r="6.84"/><path class="cls-2" d="M51.32,55.67H91.68a8.6,8.6,0,0,1,8.6,8.6V71.5a0,0,0,0,1,0,0H42.72a0,0,0,0,1,0,0V64.27A8.6,8.6,0,0,1,51.32,55.67Z"/><path class="cls-2" d="M45.24,71.5H97.76a0,0,0,0,1,0,0V93.76A7.24,7.24,0,0,1,90.52,101h-38a7.24,7.24,0,0,1-7.24-7.24V71.5A0,0,0,0,1,45.24,71.5Z"/><rect class="cls-3" x="64.3" y="55.67" width="14.39" height="45.33"/></g></svg>