<svg xmlns="http://www.w3.org/2000/svg" viewBox="0 0 143 143"><defs><style>.cls-1,.cls-3{fill:#ff9f7f;}.cls-1,.cls-2,.cls-3{stroke:#000;stroke-miterlimit:10;}.cls-1{stroke-width:2px;}.cls-2{fill:none;}.cls-2,.cls-3{stroke-width:3px;}</style></defs><g id="Camada_14" data-name="Camada 14"><circle class="cls-1" cx="71.5" cy="71.5" r="70.5"/></g><g id="Camada_16" data-name="Camada 16"><rect class="cls-2" x="35.3" y="42.75" width="48.98" height="48.98" rx="5.11"/><path class="cls-2" d="M84.38,68.31H107.6a.1.1,0,0,1,.1.1V87.94A1.66,1.66,0,0,1,106,89.6H84.38a.1.1,0,0,1-.1-.1V68.4A.1.1,0,0,1,84.38,68.31Z"/><path class="cls-2" d="M265.46,216.77h8.76a4,4,0,0,1,3.12,1.54l11.54,14.43" transform="translate(-181.18 -164.44)"/><circle class="cls-3" cx="51.27" cy="90.67" r="9.58"/><circle class="cls-3" cx="87.47" cy="90.67" r="9.58"/></g></svg>